 http://www.imdb.com/title/tt2320087
Complete name : The.Letter.Writer.2011.BRRip.Ac3.Xvid.ANALOGT.L.W.BRR.ANALOG.avi
Format : AVI
Format/Info : Audio Video Interleave
File size : 1.44 GiB
Duration : 1h 25mn
Overall bit rate : 2 411 Kbps

Video
ID : 0
Format : MPEG-4 Visual
Format profile : Advanced Simple@L5
Format settings, BVOP : 2
Format settings, QPel : No
Format settings, GMC : No warppoints
Format settings, Matrix : Default (MPEG)
Muxing mode : Packed bitstream
Codec ID : XVID
Codec ID/Hint : XviD
Duration : 1h 25mn
Bit rate : 2 019 Kbps
Width : 720 pixels
Height : 400 pixels
Display aspect ratio : 16:9
Frame rate : 23.976 fps
Color space : YUV
Chroma subsampling : 4:2:0
Bit depth : 8 bits
Scan type : Progressive
Compression mode : Lossy
Bits/(Pixel*Frame) : 0.292
Stream size : 1.20 GiB (84%)
Writing library : XviD 1.2.1 (UTC 2008-12-04)

Audio
ID : 1
Format : AC-3
Format/Info : Audio Coding 3
Mode extension : CM (complete main)
Format settings, Endianness : Big
Codec ID : 2000
Duration : 1h 25mn
Bit rate mode : Constant
Bit rate : 384 Kbps
Channel(s) : 6 channels
Channel positions : Front: L C R, Side: L R, LFE
Sampling rate : 48.0 KHz
Bit depth : 16 bits
Compression mode : Lossy
Stream size : 234 MiB (16%)
Alignment : Aligned on interleaves
Interleave, duration : 64 ms (1.53 video frames)
Interleave, preload duration : 192 ms
Title : tlw.track_2_English_ANALOG
Subs : English(hard.of.hearing)
Sample : Yes
As humans, we perceive the world in analog. Everything we see and hear is a continuous transmission of information to our senses.
analog.p.2.p@hushmail.com
GREETS:
Rx / REFiLL / BHRG / 26K /DTRG / Xtreme Encode / INSPiRAL / KoDeKinG /LEGiTiMATE / LEGi0N / HDC / PRESTIGE / HOPE / RESiSTANCE
AND ALL THE OUTHER PLACES I LURK AROUND AT!!
 
http://old.rapidimg.org/images/uOI4M.jpg 
http://old.rapidimg.org/images/B0XfZ.jpg 
http://old.rapidimg.org/images/NnUog.jpg 
http://old.rapidimg.org/images/xurh.jpg 
http://old.rapidimg.org/images/z5YdT.jpg 
http://old.rapidimg.org/images/5Gvnl.jpg